<?xml version="1.0" standalone="no"?>
<!DOCTYPE svg PUBLIC "-//W3C//DTD SVG 20010904//EN"
 "http://www.w3.org/TR/2001/REC-SVG-20010904/DTD/svg10.dtd">
<svg version="1.0" xmlns="http://www.w3.org/2000/svg"
 width="71.000000pt" height="69.000000pt" viewBox="0 0 71.000000 69.000000"
 preserveAspectRatio="xMidYMid meet">

<g transform="translate(0.000000,69.000000) scale(0.100000,-0.100000)"
fill="#000000" stroke="none">
<path d="M0 345 l0 -345 355 0 355 0 0 345 0 345 -355 0 -355 0 0 -345z m289
260 c19 -19 18 -72 -2 -92 -21 -21 -73 -21 -94 0 -9 9 -16 30 -16 48 0 60 68
87 112 44z m207 -10 c60 -17 123 -76 155 -143 56 -121 4 -283 -112 -342 -70
-37 -120 -43 -189 -26 -34 9 -71 23 -83 31 -29 21 -18 19 38 -6 95 -42 212
-21 284 52 49 48 71 103 71 177 0 137 -85 238 -221 261 -36 6 -44 9 -23 10 17
0 53 -6 80 -14z m12 -89 c17 -9 44 -35 60 -58 34 -52 38 -141 8 -201 -49 -99
-207 -130 -290 -57 -41 36 -51 37 -71 6 -20 -29 -138 -106 -165 -106 -19 0
-32 22 -25 42 7 16 138 98 157 98 8 0 22 6 31 13 13 10 14 19 5 58 -15 66 5
129 47 142 34 11 85 55 85 73 0 27 99 21 158 -10z m-339 -78 c-7 -17 -13 -55
-14 -84 0 -35 -3 -47 -9 -37 -13 23 16 174 31 159 3 -3 0 -20 -8 -38z"/>
<path d="M333 460 c-90 -54 -85 -197 7 -245 88 -46 199 21 202 122 4 109 -116
180 -209 123z m129 -42 c11 -9 17 -36 20 -90 l5 -76 -69 0 c-61 0 -70 2 -84
23 -9 13 -13 33 -10 43 7 21 45 42 76 42 10 0 22 5 25 10 9 15 -24 25 -38 11
-15 -15 -57 -14 -57 1 0 6 7 20 17 30 19 21 91 25 115 6z"/>
<path d="M387 323 c-14 -13 -6 -33 12 -33 16 0 31 18 31 36 0 7 -36 5 -43 -3z"/>
</g>
</svg>
