<?xml version="1.0" standalone="no"?>
<!DOCTYPE svg PUBLIC "-//W3C//DTD SVG 20010904//EN"
 "http://www.w3.org/TR/2001/REC-SVG-20010904/DTD/svg10.dtd">
<svg version="1.0" xmlns="http://www.w3.org/2000/svg"
 width="24.000000pt" height="24.000000pt" viewBox="0 0 24.000000 24.000000"
 preserveAspectRatio="xMidYMid meet">

<g transform="translate(0.000000,24.000000) scale(0.100000,-0.100000)"
fill="#000000" stroke="none">
<path d="M0 120 l0 -120 120 0 120 0 0 120 0 120 -120 0 -120 0 0 -120z m100
75 c0 -8 -9 -15 -20 -15 -11 0 -20 7 -20 15 0 8 9 15 20 15 11 0 20 -7 20 -15z
m93 -47 c21 -28 21 -28 1 -54 -27 -37 -55 -46 -89 -28 -26 13 -30 13 -49 -4
-30 -27 -46 -35 -46 -22 0 6 15 20 34 30 26 16 32 25 29 43 -3 13 2 28 9 35
12 10 14 6 10 -18 -8 -58 52 -84 84 -35 15 23 15 27 -1 51 -12 19 -23 25 -41
21 -13 -2 -21 0 -18 5 11 17 57 3 77 -24z m-35 -31 c3 -23 0 -27 -22 -27 -16
0 -26 6 -26 15 0 8 7 15 15 15 8 0 15 4 15 10 0 5 -7 6 -17 3 -11 -4 -14 -3
-9 6 13 21 41 8 44 -22z"/>
</g>
</svg>
