<?xml version="1.0" standalone="no"?>
<!DOCTYPE svg PUBLIC "-//W3C//DTD SVG 20010904//EN"
 "http://www.w3.org/TR/2001/REC-SVG-20010904/DTD/svg10.dtd">
<svg version="1.0" xmlns="http://www.w3.org/2000/svg"
 width="24.000000pt" height="24.000000pt" viewBox="0 0 24.000000 24.000000"
 preserveAspectRatio="xMidYMid meet">

<g transform="translate(0.000000,24.000000) scale(0.100000,-0.100000)"
fill="#000000" stroke="none">
<path d="M60 195 c0 -8 9 -15 20 -15 11 0 20 7 20 15 0 8 -9 15 -20 15 -11 0
-20 -7 -20 -15z"/>
<path d="M117 173 c-3 -5 6 -9 21 -8 35 0 57 -40 38 -70 -31 -46 -90 -24 -84
31 3 27 1 31 -10 22 -7 -7 -12 -22 -9 -35 3 -18 -3 -27 -29 -43 -19 -10 -34
-24 -34 -30 0 -13 16 -5 46 22 19 17 23 17 49 4 34 -18 62 -9 89 28 20 26 20
26 -1 54 -19 26 -66 42 -76 25z"/>
<path d="M114 139 c-5 -9 -2 -10 9 -6 10 3 17 2 17 -3 0 -6 -7 -10 -15 -10 -8
0 -15 -7 -15 -15 0 -9 10 -15 26 -15 22 0 25 4 22 27 -3 30 -31 43 -44 22z"/>
</g>
</svg>
